<svg width="178" height="48" viewBox="0 0 178 48" fill="none" xmlns="http://www.w3.org/2000/svg">
<g clip-path="url(#clip0_108_585)">
<path d="M21.6786 23.4554C23.2516 23.4554 24.5313 24.7356 24.5313 26.3092C24.5313 27.8827 23.2516 29.1629 21.6786 29.1629C20.1055 29.1629 18.8258 27.8827 18.8258 26.3092C18.8258 24.7356 20.1055 23.4554 21.6786 23.4554ZM21.6786 20.7883C18.6285 20.7883 16.1597 23.2634 16.1597 26.3092C16.1597 29.355 18.6338 31.83 21.6786 31.83C24.7233 31.83 27.1975 29.355 27.1975 26.3092C27.1975 23.2634 24.7233 20.7883 21.6786 20.7883Z" fill="#F4F4F7"/>
<path fill-rule="evenodd" clip-rule="evenodd" d="M21.1378 31.4979L13.4346 38.4246L8.71484 33.1757L16.418 26.249L21.1378 31.4979Z" fill="#F4F4F7"/>
<path fill-rule="evenodd" clip-rule="evenodd" d="M13.8901 16.3647L20.8885 20.9743L17.0057 26.8693L10.0073 22.2598L13.8901 16.3647Z" fill="#F4F4F7"/>
<path fill-rule="evenodd" clip-rule="evenodd" d="M31.6072 18.9524L26.142 25.7843L20.6299 21.3748L26.0951 14.543L31.6072 18.9524Z" fill="#F4F4F7"/>
<path fill-rule="evenodd" clip-rule="evenodd" d="M30.3808 35.3729L22.6982 31.1056L26.1258 24.9348L33.8084 29.2021L30.3808 35.3729Z" fill="#F4F4F7"/>
<path d="M7.55482 10.9428C10.3575 10.9428 12.6367 13.2228 12.6367 16.0264C12.6367 18.8301 10.3575 21.1101 7.55482 21.1101C4.75216 21.1101 2.47294 18.8301 2.47294 16.0264C2.47294 13.2228 4.75216 10.9428 7.55482 10.9428ZM7.55482 8.46897C3.3838 8.46897 0 11.8498 0 16.0223C0 20.1948 3.3838 23.5798 7.55482 23.5798C11.7258 23.5798 15.1096 20.1948 15.1096 16.0223C15.1096 11.8498 11.7258 8.46484 7.55482 8.46484V8.46897Z" fill="#ED1C24"/>
<path d="M34.0853 3.88396C37.6628 3.88396 40.5726 6.7948 40.5726 10.3736C40.5726 13.9523 37.6628 16.8632 34.0853 16.8632C30.5078 16.8632 27.5979 13.9523 27.5979 10.3736C27.5979 6.7948 30.5078 3.88396 34.0853 3.88396ZM34.0853 1.41016C29.1353 1.41016 25.125 5.42596 25.125 10.3736C25.125 15.3212 29.1394 19.337 34.0853 19.337C39.0311 19.337 43.0455 15.3212 43.0455 10.3736C43.0455 5.42596 39.0353 1.41016 34.0853 1.41016Z" fill="#00A651"/>
<path d="M7.58474 34.8593C9.70322 34.8593 11.426 36.5827 11.426 38.7019C11.426 40.8212 9.70322 42.5446 7.58474 42.5446C5.46625 42.5446 3.74344 40.8212 3.74344 38.7019C3.74344 36.5827 5.46625 34.8593 7.58474 34.8593ZM7.58474 32.3855C4.0979 32.3855 1.27051 35.2139 1.27051 38.7019C1.27051 42.19 4.0979 45.0184 7.58474 45.0184C11.0716 45.0184 13.899 42.19 13.899 38.7019C13.899 35.2139 11.0716 32.3855 7.58474 32.3855Z" fill="#FBB040"/>
<path d="M39.8713 27.6852C44.438 27.6852 48.1515 31.4001 48.1515 35.9683C48.1515 40.5366 44.438 44.2515 39.8713 44.2515C35.3046 44.2515 31.5911 40.5366 31.5911 35.9683C31.5911 31.4001 35.3046 27.6852 39.8713 27.6852ZM39.8713 25.2114C33.9321 25.2114 29.1182 30.0271 29.1182 35.9683C29.1182 41.9096 33.9321 46.7253 39.8713 46.7253C45.8105 46.7253 50.6245 41.9096 50.6245 35.9683C50.6245 30.0271 45.8105 25.2114 39.8713 25.2114Z" fill="#00AEEF"/>
<path d="M62.7714 21.6211V30.8196H59.2351V11.6806C59.2351 10.3488 59.2351 9.00062 59.2021 7.66477H62.6601C62.722 8.08944 62.7714 9.18203 62.7714 10.2746C63.707 8.6749 65.537 7.21948 68.8384 7.21948C73.1454 7.21948 76.3726 10.7611 76.3726 15.449C76.3726 20.8089 72.6343 24.2557 68.2943 24.2557C65.1166 24.2557 63.6163 22.9034 62.7714 21.6211ZM72.7291 15.6098C72.7291 12.8598 71.1505 10.1138 67.7585 10.1138C64.1934 10.1138 62.6766 12.5835 62.6766 15.7953C62.6766 19.0071 64.3541 21.3325 67.6926 21.3325C71.031 21.3325 72.725 18.7103 72.725 15.6098H72.7291Z" fill="#F4F4F7"/>
<path d="M80.2127 12.0559C80.2127 10.6005 80.2127 9.12443 80.1797 7.66489H83.6253C83.6871 8.16377 83.749 9.88306 83.749 11.1983C84.7587 8.80696 87.005 7.19074 90.2074 7.23197V10.5592C86.5104 10.5139 83.749 12.5548 83.749 17.2756V23.8106H80.2127V12.0559Z" fill="#F4F4F7"/>
<path d="M95.5204 16.5753C95.6811 19.3954 97.6059 21.4858 100.668 21.4858C103.046 21.4858 104.32 20.5623 105.12 19.1357H108.656C107.761 21.6507 105.445 24.2565 100.532 24.2565C94.5477 24.2565 91.98 19.9892 91.98 15.7796C91.98 10.9845 95.1783 7.22021 100.466 7.22021C106.632 7.22021 108.882 11.6689 108.882 15.6724C108.882 15.9775 108.882 16.2084 108.866 16.5712H95.5163L95.5204 16.5753ZM105.231 14.184C105.099 12.4317 104.167 9.87955 100.45 9.87955C97.2927 9.87955 95.8295 11.7967 95.5822 14.184H105.231Z" fill="#F4F4F7"/>
<path d="M129.276 15.7338C129.276 20.3351 126.247 24.2602 120.402 24.2602C114.558 24.2602 111.755 20.2196 111.755 15.7544C111.755 11.2892 114.974 7.22803 120.576 7.22803C126.177 7.22803 129.28 11.5324 129.28 15.7379L129.276 15.7338ZM115.366 15.7503C115.366 18.6776 117.188 21.44 120.522 21.44C123.856 21.44 125.633 18.8384 125.633 15.7956C125.633 12.7529 123.86 10.044 120.456 10.044C117.052 10.044 115.366 12.6951 115.366 15.7544V15.7503Z" fill="#F4F4F7"/>
<path d="M133.163 23.8108V0.000488281H136.699V23.8108H133.163Z" fill="#F4F4F7"/>
<path d="M156.281 19.6881C156.281 21.3868 156.375 23.4442 156.425 23.8112H153.066C152.938 23.271 152.889 22.0919 152.876 21.5806C152.023 23.1886 150.189 24.2564 146.863 24.2564C142.337 24.2564 140.635 21.5105 140.635 19.0491C140.635 14.889 144.378 13.7345 149.023 13.7345H152.823V12.9594C152.823 11.3061 152.11 9.79706 148.932 9.79706C146.055 9.79706 145.387 11.0298 145.091 12.3739H141.554C141.732 10.2712 143.162 7.21606 148.903 7.21606C155.052 7.21606 156.281 10.1929 156.281 12.8687V19.684V19.6881ZM152.819 16.1506C152.349 16.1341 151.257 16.1341 149.097 16.1341C145.664 16.1341 144.101 16.9216 144.101 18.8635C144.101 20.3355 145.206 21.5641 147.683 21.5641C151.607 21.5641 152.823 19.3583 152.823 16.7402V16.1465L152.819 16.1506Z" fill="#F4F4F7"/>
<path d="M163.358 18.9041C163.894 20.6316 165.398 21.6582 168.135 21.6582C171.016 21.6582 171.988 20.6728 171.988 19.3988C171.988 18.1248 171.205 17.3579 167.314 16.8797C161.524 16.1334 160.51 14.0802 160.51 12.0805C160.51 9.90768 162.22 7.21948 167.492 7.21948C173.105 7.21948 174.783 10.0561 174.968 12.0846H171.44C171.201 11.1652 170.562 9.75925 167.319 9.75925C164.586 9.75925 164.025 10.9137 164.025 11.7507C164.025 12.8226 164.726 13.47 168.25 13.9482C174.437 14.8058 175.504 16.7601 175.504 19.1185C175.504 22.0293 173.287 24.2599 167.912 24.2599C163.279 24.2599 160.357 22.3014 159.817 18.9082H163.358V18.9041Z" fill="#F4F4F7"/>
<path d="M59.3794 35.9282H61.8564C63.1671 35.9282 63.7647 36.6044 63.7647 37.4784C63.7647 38.5133 63.0517 39.0905 61.8853 39.0905H60.1295V41.1974H59.3835V35.9241L59.3794 35.9282ZM60.1254 38.468H61.774C62.4994 38.468 63.0022 38.2536 63.0022 37.4949C63.0022 36.8971 62.6025 36.5549 61.774 36.5549H60.1254V38.468Z" fill="#F4F4F7"/>
<path d="M64.6098 38.4679C64.6098 38.1298 64.6098 37.7835 64.6016 37.4454H65.2899C65.3022 37.5567 65.3187 37.9525 65.3187 38.2906C65.5619 37.7134 66.1059 37.3382 66.8396 37.3423V38.0185C65.9782 38.0102 65.3187 38.5256 65.3187 39.6347V41.2014H64.6139V38.4679H64.6098Z" fill="#F4F4F7"/>
<path d="M71.2413 39.3213C71.2413 40.3644 70.5654 41.3045 69.2176 41.3045C67.9482 41.3045 67.2393 40.3644 67.2393 39.3254C67.2393 38.2864 67.9894 37.3381 69.2547 37.3381C70.52 37.3381 71.2413 38.3277 71.2413 39.3172V39.3213ZM67.9605 39.3254C67.9605 40.0387 68.4139 40.7231 69.2423 40.7231C70.0708 40.7231 70.5118 40.0799 70.5118 39.3295C70.5118 38.5792 70.0584 37.9154 69.2217 37.9154C68.3851 37.9154 67.9564 38.5709 67.9564 39.3213L67.9605 39.3254Z" fill="#F4F4F7"/>
<path d="M75.7877 40.7108C75.7877 42.1249 75.3219 42.9537 73.7722 42.9537C72.2225 42.9537 71.9958 42.1043 71.9258 41.6632H72.647C72.7583 42.0466 73.0345 42.3847 73.8134 42.3847C74.9098 42.3847 75.0952 41.6755 75.0952 40.7479V40.5417C74.8686 40.9787 74.4605 41.2632 73.6816 41.2632C72.6223 41.2632 71.8887 40.4304 71.8887 39.3667C71.8887 38.1627 72.7624 37.3381 73.7763 37.3381C74.6378 37.3381 74.984 37.7298 75.0994 38.0184C75.0994 37.837 75.1076 37.5443 75.12 37.4412H75.8C75.7918 37.804 75.7918 38.1669 75.7918 38.5297V40.7066L75.7877 40.7108ZM72.6099 39.3419C72.6099 40.1129 73.1169 40.6736 73.8547 40.6736C74.6419 40.6736 75.1117 40.1871 75.1117 39.2966C75.1117 38.406 74.6666 37.9318 73.8959 37.9318C73.0221 37.9318 72.6141 38.6328 72.6141 39.3378L72.6099 39.3419Z" fill="#F4F4F7"/>
<path d="M77.0239 38.4679C77.0239 38.1298 77.0239 37.7835 77.0156 37.4454H77.7039C77.7163 37.5567 77.7328 37.9525 77.7328 38.2906C77.976 37.7134 78.52 37.3382 79.2536 37.3423V38.0185C78.3922 38.0102 77.7328 38.5256 77.7328 39.6347V41.2014H77.028V38.4679H77.0239Z" fill="#F4F4F7"/>
<path d="M80.3588 39.4865C80.4 40.208 80.8864 40.7358 81.6447 40.7358C82.23 40.7358 82.5556 40.4966 82.7576 40.1297H83.4623C83.2604 40.6904 82.7287 41.3047 81.6076 41.3047C80.264 41.3047 79.6499 40.3193 79.6499 39.3339C79.6499 38.2001 80.4042 37.3425 81.5912 37.3425C83.0172 37.3425 83.52 38.3856 83.52 39.301C83.52 39.3628 83.52 39.4123 83.52 39.4865H80.3629H80.3588ZM82.7823 38.9835C82.7493 38.5382 82.5144 37.8909 81.5829 37.8909C80.8122 37.8909 80.4371 38.3733 80.3712 38.9835H82.7823Z" fill="#F4F4F7"/>
<path d="M84.8504 40.0637C84.9865 40.509 85.3656 40.7688 86.0457 40.7688C86.767 40.7688 87.0225 40.5173 87.0225 40.1833C87.0225 39.87 86.8329 39.6556 85.8808 39.5442C84.5619 39.3793 84.3105 38.9175 84.3105 38.4516C84.3105 37.9857 84.698 37.3467 85.8973 37.3467C87.1956 37.3467 87.5624 38.0187 87.6037 38.4681H86.8947C86.837 38.2414 86.6845 37.8744 85.8602 37.8744C85.1637 37.8744 85.0153 38.1754 85.0153 38.3898C85.0153 38.6702 85.1925 38.8351 86.0498 38.9505C87.4635 39.1402 87.7232 39.5772 87.7232 40.1338C87.7232 40.81 87.208 41.313 85.9962 41.313C84.8999 41.313 84.2611 40.8512 84.1333 40.072H84.8463L84.8504 40.0637Z" fill="#F4F4F7"/>
<path d="M89.059 40.0637C89.195 40.509 89.5741 40.7688 90.2542 40.7688C90.9755 40.7688 91.231 40.5173 91.231 40.1833C91.231 39.87 91.0414 39.6556 90.0893 39.5442C88.7704 39.3793 88.519 38.9175 88.519 38.4516C88.519 37.9857 88.9064 37.3467 90.1058 37.3467C91.4041 37.3467 91.7709 38.0187 91.8121 38.4681H91.1032C91.0455 38.2414 90.893 37.8744 90.0687 37.8744C89.3722 37.8744 89.2238 38.1754 89.2238 38.3898C89.2238 38.6702 89.401 38.8351 90.2583 38.9505C91.672 39.1402 91.9317 39.5772 91.9317 40.1338C91.9317 40.81 91.4165 41.313 90.2047 41.313C89.1084 41.313 88.4696 40.8512 88.3418 40.072H89.0548L89.059 40.0637Z" fill="#F4F4F7"/>
<path d="M92.8628 35.6189H93.5676V36.4682H92.8628V35.6189ZM92.8628 37.4413H93.5676V41.1973H92.8628V37.4413Z" fill="#F4F4F7"/>
<path d="M94.767 38.3939C94.767 38.0764 94.767 37.726 94.7588 37.4456H95.4471C95.4636 37.5734 95.4718 37.8868 95.4759 38.1424C95.6408 37.7796 96.0323 37.3425 96.8361 37.3425C97.7181 37.3425 98.291 37.8868 98.291 38.9175V41.2058H97.5821V39.0453C97.5821 38.4269 97.3471 37.9362 96.6465 37.9362C95.8634 37.9362 95.4801 38.5341 95.4801 39.404V41.2058H94.7712V38.3939H94.767Z" fill="#F4F4F7"/>
<path d="M103.105 40.7108C103.105 42.1249 102.639 42.9537 101.089 42.9537C99.5394 42.9537 99.3127 42.1043 99.2427 41.6632H99.9639C100.075 42.0466 100.347 42.3847 101.13 42.3847C102.227 42.3847 102.412 41.6755 102.412 40.7479V40.5417C102.185 40.9787 101.777 41.2632 100.998 41.2632C99.9392 41.2632 99.2056 40.4304 99.2056 39.3667C99.2056 38.1627 100.079 37.3381 101.093 37.3381C101.951 37.3381 102.301 37.7298 102.416 38.0184C102.416 37.837 102.425 37.5443 102.437 37.4412H103.117C103.109 37.804 103.109 38.1669 103.109 38.5297V40.7066L103.105 40.7108ZM99.9268 39.3419C99.9268 40.1129 100.434 40.6736 101.172 40.6736C101.959 40.6736 102.429 40.1871 102.429 39.2966C102.429 38.406 101.984 37.9318 101.213 37.9318C100.339 37.9318 99.931 38.6328 99.931 39.3378L99.9268 39.3419Z" fill="#F4F4F7"/>
<path d="M106.02 37.4453H106.766V36.2373H107.474V37.4453H108.455V38.0019H107.474V40.0593C107.474 40.4881 107.586 40.6819 107.994 40.6819C108.101 40.6819 108.253 40.6778 108.365 40.6489V41.1684C108.196 41.2261 107.998 41.2385 107.784 41.2385C107.005 41.2385 106.77 40.8922 106.77 40.15V38.0019H106.024V37.4453H106.02Z" fill="#F4F4F7"/>
<path d="M109.96 35.6189V38.1174C110.092 37.8412 110.442 37.3382 111.349 37.3382C112.206 37.3382 112.775 37.8659 112.775 38.9296V41.1973H112.066V39.0327C112.066 38.4019 111.839 37.9278 111.138 37.9278C110.343 37.9278 109.968 38.5627 109.968 39.3502V41.1973H109.263V35.6147H109.968L109.96 35.6189Z" fill="#F4F4F7"/>
<path d="M114.007 38.4681C114.007 38.1301 114.007 37.7837 113.999 37.4456H114.687C114.699 37.557 114.716 37.9528 114.716 38.2909C114.959 37.7136 115.503 37.3384 116.237 37.3426V38.0187C115.375 38.0105 114.716 38.5259 114.716 39.635V41.2017H114.011V38.4681H114.007Z" fill="#F4F4F7"/>
<path d="M120.633 39.3213C120.633 40.3644 119.957 41.3045 118.61 41.3045C117.34 41.3045 116.631 40.3644 116.631 39.3254C116.631 38.2864 117.381 37.3381 118.647 37.3381C119.912 37.3381 120.633 38.3277 120.633 39.3172V39.3213ZM117.353 39.3254C117.353 40.0387 117.81 40.7231 118.634 40.7231C119.459 40.7231 119.904 40.0799 119.904 39.3295C119.904 38.5792 119.45 37.9154 118.614 37.9154C117.777 37.9154 117.348 38.5709 117.348 39.3213L117.353 39.3254Z" fill="#F4F4F7"/>
<path d="M125.007 40.1046C125.007 40.4716 125.007 40.8344 125.011 41.2014H124.331C124.315 41.0983 124.307 40.8303 124.302 40.5664C124.113 40.9911 123.779 41.3044 122.955 41.3044C122.13 41.3044 121.541 40.8715 121.541 39.7748V37.4453H122.246V39.647C122.246 40.216 122.468 40.7066 123.144 40.7066C123.952 40.7066 124.298 40.2366 124.298 39.144V37.4453H125.003V40.1046H125.007Z" fill="#F4F4F7"/>
<path d="M129.825 40.7108C129.825 42.1249 129.36 42.9537 127.81 42.9537C126.26 42.9537 126.033 42.1043 125.963 41.6632H126.685C126.796 42.0466 127.068 42.3847 127.851 42.3847C128.947 42.3847 129.133 41.6755 129.133 40.7479V40.5417C128.906 40.9787 128.498 41.2632 127.719 41.2632C126.66 41.2632 125.926 40.4304 125.926 39.3667C125.926 38.1627 126.8 37.3381 127.814 37.3381C128.671 37.3381 129.022 37.7298 129.137 38.0184C129.137 37.837 129.145 37.5443 129.158 37.4412H129.838C129.829 37.804 129.829 38.1669 129.829 38.5297V40.7066L129.825 40.7108ZM126.648 39.3419C126.648 40.1129 127.154 40.6736 127.892 40.6736C128.679 40.6736 129.149 40.1871 129.149 39.2966C129.149 38.406 128.704 37.9318 127.933 37.9318C127.06 37.9318 126.652 38.6328 126.652 39.3378L126.648 39.3419Z" fill="#F4F4F7"/>
<path d="M131.762 35.6189V38.1174C131.894 37.8412 132.245 37.3382 133.151 37.3382C134.009 37.3382 134.577 37.8659 134.577 38.9296V41.1973H133.869V39.0327C133.869 38.4019 133.642 37.9278 132.941 37.9278C132.146 37.9278 131.771 38.5627 131.771 39.3502V41.1973H131.066V35.6147H131.771L131.762 35.6189Z" fill="#F4F4F7"/>
<path d="M138.65 39.243C139.049 38.8843 140.137 37.9566 140.719 37.4454H141.613L139.874 38.9049L141.798 41.2014H140.904L139.354 39.3048L138.65 39.8656V41.1973H137.945V35.6147H138.65V39.2347V39.243Z" fill="#F4F4F7"/>
<path d="M142.371 38.3937C142.371 38.0762 142.371 37.7257 142.363 37.4454H143.051C143.068 37.5732 143.076 37.8865 143.08 38.1421C143.245 37.7793 143.636 37.3423 144.44 37.3423C145.322 37.3423 145.895 37.8865 145.895 38.9173V41.2055H145.186V39.0451C145.186 38.4266 144.951 37.936 144.25 37.936C143.467 37.936 143.084 38.5338 143.084 39.4038V41.2055H142.375V38.3937H142.371Z" fill="#F4F4F7"/>
<path d="M150.816 39.3213C150.816 40.3644 150.141 41.3045 148.793 41.3045C147.523 41.3045 146.814 40.3644 146.814 39.3254C146.814 38.2864 147.565 37.3381 148.83 37.3381C150.095 37.3381 150.816 38.3277 150.816 39.3172V39.3213ZM147.536 39.3254C147.536 40.0387 147.993 40.7231 148.818 40.7231C149.642 40.7231 150.087 40.0799 150.087 39.3295C150.087 38.5792 149.634 37.9154 148.797 37.9154C147.96 37.9154 147.532 38.5709 147.532 39.3213L147.536 39.3254Z" fill="#F4F4F7"/>
<path d="M152.057 37.4458C152.741 39.6392 152.889 40.1629 152.98 40.571H152.988C153.091 40.1835 153.248 39.6887 154.023 37.4458H154.699C155.461 39.664 155.638 40.2247 155.708 40.5298H155.717C155.803 40.167 156.038 39.3712 156.664 37.4458H157.365L156.063 41.2019H155.329C154.884 39.8825 154.455 38.6786 154.332 38.2457H154.323C154.225 38.6044 153.845 39.7423 153.318 41.2019H152.555L151.319 37.4458H152.052H152.057Z" fill="#F4F4F7"/>
<path d="M158.157 41.2017V35.6191H158.862V41.2017H158.157Z" fill="#F4F4F7"/>
<path d="M160.494 39.4865C160.535 40.208 161.022 40.7358 161.78 40.7358C162.365 40.7358 162.691 40.4966 162.893 40.1297H163.598C163.396 40.6904 162.864 41.3047 161.743 41.3047C160.399 41.3047 159.785 40.3193 159.785 39.3339C159.785 38.2001 160.539 37.3425 161.726 37.3425C163.152 37.3425 163.655 38.3856 163.655 39.301C163.655 39.3628 163.655 39.4123 163.655 39.4865H160.498H160.494ZM162.918 38.9835C162.885 38.5382 162.65 37.8909 161.718 37.8909C160.947 37.8909 160.572 38.3733 160.506 38.9835H162.913H162.918Z" fill="#F4F4F7"/>
<path d="M168.259 35.6189V40.1088C168.259 40.4717 168.259 40.8386 168.268 41.2014H167.583C167.563 41.0406 167.554 40.8139 167.554 40.6283C167.365 40.9499 167.043 41.3045 166.174 41.3045C165.086 41.3045 164.352 40.4923 164.352 39.3543C164.352 38.1174 165.284 37.3423 166.26 37.3423C167.142 37.3423 167.447 37.7422 167.55 37.9195V35.6189H168.259ZM165.077 39.3378C165.077 40.0305 165.498 40.7149 166.318 40.7149C167.212 40.7149 167.579 40.1377 167.579 39.309C167.579 38.4803 167.287 37.9278 166.343 37.9278C165.49 37.9278 165.077 38.6287 165.077 39.3378Z" fill="#F4F4F7"/>
<path d="M173.093 40.7108C173.093 42.1249 172.627 42.9537 171.077 42.9537C169.528 42.9537 169.301 42.1043 169.231 41.6632H169.952C170.063 42.0466 170.336 42.3847 171.119 42.3847C172.215 42.3847 172.4 41.6755 172.4 40.7479V40.5417C172.174 40.9787 171.766 41.2632 170.987 41.2632C169.927 41.2632 169.194 40.4304 169.194 39.3667C169.194 38.1627 170.068 37.3381 171.082 37.3381C171.939 37.3381 172.289 37.7298 172.405 38.0184C172.405 37.837 172.413 37.5443 172.425 37.4412H173.105C173.097 37.804 173.097 38.1669 173.097 38.5297V40.7066L173.093 40.7108ZM169.915 39.3419C169.915 40.1129 170.422 40.6736 171.16 40.6736C171.947 40.6736 172.417 40.1871 172.417 39.2966C172.417 38.406 171.972 37.9318 171.201 37.9318C170.327 37.9318 169.919 38.6328 169.919 39.3378L169.915 39.3419Z" fill="#F4F4F7"/>
<path d="M174.726 39.4862C174.767 40.2078 175.253 40.7355 176.011 40.7355C176.597 40.7355 176.922 40.4964 177.124 40.1294H177.829C177.627 40.6902 177.095 41.3045 175.974 41.3045C174.631 41.3045 174.017 40.3191 174.017 39.3337C174.017 38.1999 174.771 37.3423 175.958 37.3423C177.384 37.3423 177.887 38.3854 177.887 39.3007C177.887 39.3626 177.887 39.412 177.887 39.4862H174.73H174.726ZM177.149 38.9832C177.116 38.538 176.881 37.8906 175.95 37.8906C175.179 37.8906 174.804 38.373 174.738 38.9832H177.145H177.149Z" fill="#F4F4F7"/>
</g>
<defs>
<clipPath id="clip0_108_585">
<rect width="177.882" height="48" fill="white"/>
</clipPath>
</defs>
</svg>
